<svg width="16" height="16" viewBox="0 0 16 16" fill="none" xmlns="http://www.w3.org/2000/svg">
<path d="M8.39071 1.72416C8.14072 1.4741 7.80163 1.33357 7.44804 1.3335H2.66671C2.31309 1.3335 1.97395 1.47397 1.7239 1.72402C1.47385 1.97407 1.33337 2.31321 1.33337 2.66683V7.44816C1.33345 7.80176 1.47397 8.14084 1.72404 8.39083L7.52671 14.1935C7.82972 14.4946 8.23954 14.6636 8.66671 14.6636C9.09388 14.6636 9.5037 14.4946 9.80671 14.1935L14.1934 9.80683C14.4945 9.50382 14.6635 9.094 14.6635 8.66683C14.6635 8.23966 14.4945 7.82984 14.1934 7.52683L8.39071 1.72416Z" stroke="white" stroke-opacity="0.4" stroke-width="1.33333" stroke-linecap="round" stroke-linejoin="round"/>
<path d="M4.99996 5.33317C5.18405 5.33317 5.33329 5.18393 5.33329 4.99984C5.33329 4.81574 5.18405 4.6665 4.99996 4.6665C4.81586 4.6665 4.66663 4.81574 4.66663 4.99984C4.66663 5.18393 4.81586 5.33317 4.99996 5.33317Z" fill="white" fill-opacity="0.4" stroke="white" stroke-opacity="0.4" stroke-width="1.33333" stroke-linecap="round" stroke-linejoin="round"/>
</svg>
