<svg width="20" height="20" viewBox="0 0 20 20" fill="none" xmlns="http://www.w3.org/2000/svg">
<path d="M17.5 13.3333H14.1667C13.7065 13.3333 13.3334 13.7063 13.3334 14.1666V17.4999C13.3334 17.9602 13.7065 18.3333 14.1667 18.3333H17.5C17.9603 18.3333 18.3334 17.9602 18.3334 17.4999V14.1666C18.3334 13.7063 17.9603 13.3333 17.5 13.3333Z" stroke="#667EEA" stroke-width="1.66667" stroke-linecap="round" stroke-linejoin="round"/>
<path d="M5.83329 13.3333H2.49996C2.03972 13.3333 1.66663 13.7063 1.66663 14.1666V17.4999C1.66663 17.9602 2.03972 18.3333 2.49996 18.3333H5.83329C6.29353 18.3333 6.66663 17.9602 6.66663 17.4999V14.1666C6.66663 13.7063 6.29353 13.3333 5.83329 13.3333Z" stroke="#667EEA" stroke-width="1.66667" stroke-linecap="round" stroke-linejoin="round"/>
<path d="M11.6667 1.66675H8.33333C7.8731 1.66675 7.5 2.03984 7.5 2.50008V5.83341C7.5 6.29365 7.8731 6.66675 8.33333 6.66675H11.6667C12.1269 6.66675 12.5 6.29365 12.5 5.83341V2.50008C12.5 2.03984 12.1269 1.66675 11.6667 1.66675Z" stroke="#667EEA" stroke-width="1.66667" stroke-linecap="round" stroke-linejoin="round"/>
<path d="M4.16663 13.3333V10.8333C4.16663 10.6123 4.25442 10.4004 4.4107 10.2441C4.56698 10.0878 4.77895 10 4.99996 10H15C15.221 10 15.4329 10.0878 15.5892 10.2441C15.7455 10.4004 15.8333 10.6123 15.8333 10.8333V13.3333" stroke="#667EEA" stroke-width="1.66667" stroke-linecap="round" stroke-linejoin="round"/>
<path d="M10 10.0001V6.66675" stroke="#667EEA" stroke-width="1.66667" stroke-linecap="round" stroke-linejoin="round"/>
</svg>
