<svg width="16" height="16" viewBox="0 0 16 16" fill="none" xmlns="http://www.w3.org/2000/svg">
<path d="M3.99996 14.6668C3.64634 14.6668 3.3072 14.5264 3.05715 14.2763C2.8071 14.0263 2.66663 13.6871 2.66663 13.3335V2.66683C2.66663 2.31321 2.8071 1.97407 3.05715 1.72402C3.3072 1.47397 3.64634 1.3335 3.99996 1.3335H9.33329C9.54433 1.33316 9.75335 1.37457 9.94831 1.45534C10.1433 1.53612 10.3203 1.65467 10.4693 1.80416L12.8613 4.19617C13.0112 4.34517 13.1301 4.5224 13.2111 4.71761C13.2921 4.91282 13.3336 5.12214 13.3333 5.3335V13.3335C13.3333 13.6871 13.1928 14.0263 12.9428 14.2763C12.6927 14.5264 12.3536 14.6668 12 14.6668H3.99996Z" stroke="#667EEA" stroke-width="1.33333" stroke-linecap="round" stroke-linejoin="round"/>
<path d="M9.33337 1.3335V4.66683C9.33337 4.84364 9.40361 5.01321 9.52864 5.13823C9.65366 5.26326 9.82323 5.3335 10 5.3335H13.3334" stroke="#667EEA" stroke-width="1.33333" stroke-linecap="round" stroke-linejoin="round"/>
<path d="M6.66671 6H5.33337" stroke="#667EEA" stroke-width="1.33333" stroke-linecap="round" stroke-linejoin="round"/>
<path d="M10.6667 8.6665H5.33337" stroke="#667EEA" stroke-width="1.33333" stroke-linecap="round" stroke-linejoin="round"/>
<path d="M10.6667 11.3335H5.33337" stroke="#667EEA" stroke-width="1.33333" stroke-linecap="round" stroke-linejoin="round"/>
</svg>
