<svg width="24" height="24" viewBox="0 0 24 24" fill="none" xmlns="http://www.w3.org/2000/svg">
<path d="M16.6465 6.64645C16.8417 6.45119 17.1583 6.45119 17.3535 6.64645C17.5488 6.84172 17.5488 7.15821 17.3535 7.35348L12.707 12L17.3535 16.6465C17.5488 16.8417 17.5488 17.1583 17.3535 17.3535C17.1583 17.5488 16.8417 17.5488 16.6465 17.3535L12 12.707L7.35348 17.3535C7.15821 17.5488 6.84172 17.5488 6.64645 17.3535C6.45119 17.1583 6.45119 16.8417 6.64645 16.6465L11.293 12L6.64645 7.35348C6.45124 7.15821 6.45121 6.8417 6.64645 6.64645C6.8417 6.45126 7.15823 6.45126 7.35348 6.64645L12 11.293L16.6465 6.64645Z" fill="black" fill-opacity="0.5"/>
</svg>
